<?xml version="1.0" encoding="iso-8859-1"?>
<!-- Uploaded to: SVG Repo, www.svgrepo.com, Generator: SVG Repo Mixer Tools -->
<svg height="800px" width="800px" version="1.1" id="Layer_1" xmlns="http://www.w3.org/2000/svg" xmlns:xlink="http://www.w3.org/1999/xlink" 
	 viewBox="0 0 512 512" xml:space="preserve">
<circle style="fill:#00b4fc;" cx="256" cy="256" r="256"/>
<path style="fill:#008df9;" d="M358.221,157.094L154.715,355.843l151.276,151.262c101.283-20.052,181.069-99.84,201.116-201.123
	L358.221,157.094z"/>
<circle style="fill:#FF7F4F;" cx="256" cy="256" r="142.222"/>
<path style="fill:#E03A00;" d="M256,113.778c-0.481,0-0.955,0.031-1.436,0.036v284.372c0.481,0.005,0.955,0.036,1.436,0.036
	c78.546,0,142.222-63.676,142.222-142.222S334.546,113.778,256,113.778z"/>
<circle style="fill:#366695;" cx="256" cy="256" r="71.111"/>
<path style="fill:#273B7A;" d="M256,184.889c-0.481,0-0.957,0.028-1.436,0.036v142.15c0.479,0.009,0.955,0.036,1.436,0.036
	c39.274,0,71.111-31.837,71.111-71.111S295.274,184.889,256,184.889z"/>
<circle style="fill:#E03A00;" cx="256" cy="152.893" r="21.333"/>
<path style="fill:#008df9;" d="M256,131.556c-0.484,0-0.958,0.04-1.436,0.072v42.522c0.478,0.033,0.952,0.072,1.436,0.072
	c11.783,0,21.333-9.552,21.333-21.333S267.783,131.556,256,131.556z"/>
<circle style="fill:#E03A00;" cx="256" cy="359.107" r="21.333"/>
<g>
	<path style="fill:#008df9;" d="M256,337.779c-0.484,0-0.958,0.04-1.436,0.072v42.522c0.478,0.033,0.952,0.072,1.436,0.072
		c11.783,0,21.333-9.552,21.333-21.333S267.783,337.779,256,337.779z"/>
	<circle style="fill:#008df9;" cx="359.107" cy="256" r="21.333"/>
</g>
<g>
	<circle style="fill:#E03A00;" cx="152.893" cy="256" r="21.333"/>
	<circle style="fill:#E03A00;" cx="183.096" cy="183.096" r="21.333"/>
</g>
<circle style="fill:#008df9;" cx="328.904" cy="183.096" r="21.333"/>
<circle style="fill:#E03A00;" cx="183.096" cy="328.904" r="21.333"/>
<path style="fill:#121149;" d="M384.588,308.819l-92.713-46.356l58.103,88.154c8.054,12.219,25.931,12.36,34.176,0.267l8.233-12.074
	C399.405,328.514,395.733,314.39,384.588,308.819z"/>
</svg>