<?xml version="1.0" encoding="utf-8"?>
<!-- Generator: Adobe Illustrator 22.0.0, SVG Export Plug-In . SVG Version: 6.00 Build 0)  -->
<svg version="1.0" id="Layer_1" xmlns="http://www.w3.org/2000/svg" xmlns:xlink="http://www.w3.org/1999/xlink" x="0px" y="0px"
	 viewBox="0 0 4229 3274" style="enable-background:new 0 0 4229 3274;" xml:space="preserve">
<style type="text/css">
	.st0{fill:#1B75BC;}
</style>
<g>
	<path class="st0" d="M1935.3,363.5c-36.7-47-111.6-31.4-126.2,26.4c-189.7,752.7-653,1274.1-760.6,1387.6
		c-24.6-32.3-71.2-38-102.7-12.1l-325.9,267.2c-56.3,46.2-92.1,112.7-99.7,185.1c-7.3,69.6,12.1,139.4,54.2,195.3l204.7,271.6
		c35.5,47,88.2,78,146.6,85.9c56.7,7.7,114.1-6.8,160.3-40.6l38.3-28l373.6,485.3c44,57.2,127.7,63.9,180.3,14.6l105.5-99
		c50-46.9,51.6-125.7,3.6-174.6l-406.4-414l76.4-55.9c32-23.4,39-68.4,15.6-100.4l-10.6-14.5c604.4-336.5,1288.9-369.1,1588-364.8
		c60.3,0.9,94.6-68.6,57.5-116.1L1935.3,363.5z"/>
	<path class="st0" d="M2510.7,722.6c9.1,4.5,19,5.4,28.1,3c11-2.8,20.7-10.2,26.2-21.1l304.2-606.8c10-20,1.9-44.3-18-54.3
		c-20-10-44.3-1.9-54.3,18l-304.2,606.8C2482.6,688.3,2490.7,712.6,2510.7,722.6z"/>
	<path class="st0" d="M3631.7,998.1c-5.5-21.6-27.5-34.7-49.2-29.2l-657.7,167.8c-21.6,5.5-34.7,27.5-29.2,49.2
		c5.5,21.6,27.5,34.7,49.2,29.2l657.7-167.8C3624.1,1041.8,3637.2,1019.7,3631.7,998.1z"/>
	<path class="st0" d="M2718.6,900.2c10.2,12.8,26.7,17.7,41.6,13.9c5.4-1.4,10.6-3.9,15.2-7.6l532.9-426.3
		c17.4-13.9,20.3-39.4,6.3-56.8c-13.9-17.4-39.4-20.3-56.8-6.3l-532.9,426.3C2707.5,857.3,2704.6,882.8,2718.6,900.2z"/>
</g>
</svg>
